<mxfile host="app.diagrams.net" modified="2024-02-09T07:49:06.937Z" agent="Mozilla/5.0 (Windows NT 10.0; Win64; x64) AppleWebKit/537.36 (KHTML, like Gecko) Chrome/121.0.0.0 Safari/537.36" etag="N_KRzqEe5iIUf_OkbSIf" version="22.1.18" type="device">
  <diagram name="Page-1" id="AHb6TCaxyjE5SXQ0B6IV">
    <mxGraphModel dx="2359" dy="819" grid="1" gridSize="10" guides="1" tooltips="1" connect="1" arrows="1" fold="1" page="1" pageScale="1" pageWidth="850" pageHeight="1100" math="0" shadow="0">
      <root>
        <mxCell id="0" />
        <mxCell id="1" parent="0" />
        <mxCell id="4IVssqyfsW-4-x0KaZEC-1" value="Get user letters" style="ellipse;whiteSpace=wrap;html=1;" vertex="1" parent="1">
          <mxGeometry x="60" y="30" width="210" height="50" as="geometry" />
        </mxCell>
        <mxCell id="4IVssqyfsW-4-x0KaZEC-2" value="" style="endArrow=classic;html=1;rounded=0;exitX=0.5;exitY=1;exitDx=0;exitDy=0;" edge="1" parent="1" source="4IVssqyfsW-4-x0KaZEC-1">
          <mxGeometry width="50" height="50" relative="1" as="geometry">
            <mxPoint x="400" y="330" as="sourcePoint" />
            <mxPoint x="165" y="140" as="targetPoint" />
          </mxGeometry>
        </mxCell>
        <mxCell id="4IVssqyfsW-4-x0KaZEC-6" style="edgeStyle=orthogonalEdgeStyle;rounded=0;orthogonalLoop=1;jettySize=auto;html=1;exitX=0.5;exitY=1;exitDx=0;exitDy=0;entryX=0.5;entryY=0;entryDx=0;entryDy=0;" edge="1" parent="1" source="4IVssqyfsW-4-x0KaZEC-3" target="4IVssqyfsW-4-x0KaZEC-4">
          <mxGeometry relative="1" as="geometry">
            <mxPoint x="165" y="240" as="targetPoint" />
          </mxGeometry>
        </mxCell>
        <mxCell id="4IVssqyfsW-4-x0KaZEC-3" value="Iterate through rows and columns and check word against them" style="ellipse;whiteSpace=wrap;html=1;" vertex="1" parent="1">
          <mxGeometry x="40" y="140" width="240" height="60" as="geometry" />
        </mxCell>
        <mxCell id="4IVssqyfsW-4-x0KaZEC-4" value="Does row contain letters that are in the word being checked?&lt;br&gt;" style="rhombus;whiteSpace=wrap;html=1;" vertex="1" parent="1">
          <mxGeometry x="-25" y="270" width="370" height="110" as="geometry" />
        </mxCell>
        <mxCell id="4IVssqyfsW-4-x0KaZEC-7" value="No" style="endArrow=classic;html=1;rounded=0;exitX=1;exitY=0.5;exitDx=0;exitDy=0;" edge="1" parent="1" source="4IVssqyfsW-4-x0KaZEC-4">
          <mxGeometry width="50" height="50" relative="1" as="geometry">
            <mxPoint x="400" y="330" as="sourcePoint" />
            <mxPoint x="440" y="325" as="targetPoint" />
          </mxGeometry>
        </mxCell>
        <mxCell id="4IVssqyfsW-4-x0KaZEC-8" value="Word is not usable" style="ellipse;whiteSpace=wrap;html=1;" vertex="1" parent="1">
          <mxGeometry x="440" y="285" width="120" height="80" as="geometry" />
        </mxCell>
        <mxCell id="4IVssqyfsW-4-x0KaZEC-10" value="Yes&lt;br&gt;" style="endArrow=classic;html=1;rounded=0;exitX=0.5;exitY=1;exitDx=0;exitDy=0;" edge="1" parent="1" source="4IVssqyfsW-4-x0KaZEC-4">
          <mxGeometry width="50" height="50" relative="1" as="geometry">
            <mxPoint x="190" y="450" as="sourcePoint" />
            <mxPoint x="160" y="460" as="targetPoint" />
          </mxGeometry>
        </mxCell>
        <mxCell id="4IVssqyfsW-4-x0KaZEC-14" style="edgeStyle=orthogonalEdgeStyle;rounded=0;orthogonalLoop=1;jettySize=auto;html=1;exitX=0.5;exitY=1;exitDx=0;exitDy=0;" edge="1" parent="1" source="4IVssqyfsW-4-x0KaZEC-11" target="4IVssqyfsW-4-x0KaZEC-12">
          <mxGeometry relative="1" as="geometry" />
        </mxCell>
        <mxCell id="4IVssqyfsW-4-x0KaZEC-11" value="Check if the word fits where the letters are in the row." style="ellipse;whiteSpace=wrap;html=1;" vertex="1" parent="1">
          <mxGeometry x="30" y="460" width="260" height="70" as="geometry" />
        </mxCell>
        <mxCell id="4IVssqyfsW-4-x0KaZEC-13" value="No" style="edgeStyle=orthogonalEdgeStyle;rounded=0;orthogonalLoop=1;jettySize=auto;html=1;exitX=1;exitY=0.5;exitDx=0;exitDy=0;entryX=0.5;entryY=1;entryDx=0;entryDy=0;" edge="1" parent="1" source="4IVssqyfsW-4-x0KaZEC-12" target="4IVssqyfsW-4-x0KaZEC-8">
          <mxGeometry x="-0.8654" relative="1" as="geometry">
            <mxPoint as="offset" />
          </mxGeometry>
        </mxCell>
        <mxCell id="4IVssqyfsW-4-x0KaZEC-17" value="Yes&lt;br&gt;" style="edgeStyle=orthogonalEdgeStyle;rounded=0;orthogonalLoop=1;jettySize=auto;html=1;exitX=0.5;exitY=1;exitDx=0;exitDy=0;entryX=0.5;entryY=0;entryDx=0;entryDy=0;" edge="1" parent="1" source="4IVssqyfsW-4-x0KaZEC-12" target="4IVssqyfsW-4-x0KaZEC-16">
          <mxGeometry relative="1" as="geometry" />
        </mxCell>
        <mxCell id="4IVssqyfsW-4-x0KaZEC-12" value="Word fits?" style="rhombus;whiteSpace=wrap;html=1;" vertex="1" parent="1">
          <mxGeometry x="85" y="580" width="150" height="80" as="geometry" />
        </mxCell>
        <mxCell id="4IVssqyfsW-4-x0KaZEC-21" style="edgeStyle=orthogonalEdgeStyle;rounded=0;orthogonalLoop=1;jettySize=auto;html=1;exitX=1;exitY=0.5;exitDx=0;exitDy=0;entryX=0;entryY=0.5;entryDx=0;entryDy=0;" edge="1" parent="1" source="4IVssqyfsW-4-x0KaZEC-16" target="4IVssqyfsW-4-x0KaZEC-20">
          <mxGeometry relative="1" as="geometry" />
        </mxCell>
        <mxCell id="4IVssqyfsW-4-x0KaZEC-16" value="Check if other letters in the word are in the user letters." style="ellipse;whiteSpace=wrap;html=1;" vertex="1" parent="1">
          <mxGeometry x="30" y="710" width="260" height="80" as="geometry" />
        </mxCell>
        <mxCell id="4IVssqyfsW-4-x0KaZEC-22" value="No" style="edgeStyle=orthogonalEdgeStyle;rounded=0;orthogonalLoop=1;jettySize=auto;html=1;exitX=0.5;exitY=0;exitDx=0;exitDy=0;entryX=0.5;entryY=1;entryDx=0;entryDy=0;" edge="1" parent="1" source="4IVssqyfsW-4-x0KaZEC-20" target="4IVssqyfsW-4-x0KaZEC-8">
          <mxGeometry x="-0.7941" relative="1" as="geometry">
            <mxPoint as="offset" />
          </mxGeometry>
        </mxCell>
        <mxCell id="4IVssqyfsW-4-x0KaZEC-25" value="Yes&lt;br&gt;" style="edgeStyle=orthogonalEdgeStyle;rounded=0;orthogonalLoop=1;jettySize=auto;html=1;exitX=1;exitY=0.5;exitDx=0;exitDy=0;entryX=0.5;entryY=1;entryDx=0;entryDy=0;" edge="1" parent="1" source="4IVssqyfsW-4-x0KaZEC-20" target="4IVssqyfsW-4-x0KaZEC-23">
          <mxGeometry x="-0.8876" relative="1" as="geometry">
            <mxPoint as="offset" />
          </mxGeometry>
        </mxCell>
        <mxCell id="4IVssqyfsW-4-x0KaZEC-20" value="Are the other letters user letters?" style="rhombus;whiteSpace=wrap;html=1;" vertex="1" parent="1">
          <mxGeometry x="405" y="705" width="190" height="90" as="geometry" />
        </mxCell>
        <mxCell id="4IVssqyfsW-4-x0KaZEC-29" style="edgeStyle=orthogonalEdgeStyle;rounded=0;orthogonalLoop=1;jettySize=auto;html=1;exitX=0.5;exitY=0;exitDx=0;exitDy=0;entryX=0.5;entryY=1;entryDx=0;entryDy=0;" edge="1" parent="1" source="4IVssqyfsW-4-x0KaZEC-23" target="4IVssqyfsW-4-x0KaZEC-28">
          <mxGeometry relative="1" as="geometry" />
        </mxCell>
        <mxCell id="4IVssqyfsW-4-x0KaZEC-23" value="Word is usable add it to usable words list" style="ellipse;whiteSpace=wrap;html=1;" vertex="1" parent="1">
          <mxGeometry x="595" y="285" width="120" height="80" as="geometry" />
        </mxCell>
        <mxCell id="4IVssqyfsW-4-x0KaZEC-27" style="edgeStyle=orthogonalEdgeStyle;rounded=0;orthogonalLoop=1;jettySize=auto;html=1;exitX=1;exitY=0.5;exitDx=0;exitDy=0;entryX=0;entryY=0.5;entryDx=0;entryDy=0;" edge="1" parent="1" source="4IVssqyfsW-4-x0KaZEC-26" target="4IVssqyfsW-4-x0KaZEC-1">
          <mxGeometry relative="1" as="geometry" />
        </mxCell>
        <mxCell id="4IVssqyfsW-4-x0KaZEC-26" value="Start" style="ellipse;whiteSpace=wrap;html=1;aspect=fixed;" vertex="1" parent="1">
          <mxGeometry x="-45" y="32.5" width="45" height="45" as="geometry" />
        </mxCell>
        <mxCell id="4IVssqyfsW-4-x0KaZEC-28" value="End" style="ellipse;whiteSpace=wrap;html=1;aspect=fixed;" vertex="1" parent="1">
          <mxGeometry x="630" y="210" width="45" height="45" as="geometry" />
        </mxCell>
      </root>
    </mxGraphModel>
  </diagram>
</mxfile>
